<svg width="54" height="55" viewBox="0 0 54 55" fill="none" xmlns="http://www.w3.org/2000/svg">
<g opacity="0.7">
<path d="M51.6251 19.3648C50.1669 17.7558 48.0899 16.8669 45.781 16.8669H40.2241V13.8063C40.2241 13.0637 39.6276 12.4561 38.8984 12.4561H12.4287C11.6996 12.4561 11.103 13.0637 11.103 13.8063V18.5097H5.94386C5.21473 18.5097 4.61816 19.1173 4.61816 19.8599C4.61816 20.6025 5.21473 21.2101 5.94386 21.2101H12.3956C12.4066 21.2101 12.4177 21.2101 12.4287 21.2101C12.4287 21.2101 12.4287 21.2101 12.4398 21.2101C13.1689 21.2101 13.7655 20.6025 13.7655 19.8599V15.1565H37.5838V18.2171V36.3216H25.1002C25.0449 36.3216 24.9897 36.3216 24.9345 36.3329C24.2716 34.6676 22.6697 33.4861 20.8027 33.4861C18.9246 33.4861 17.3227 34.6788 16.6709 36.3554C16.5715 36.3329 16.4831 36.3216 16.3837 36.3216H13.7655V31.607C13.7655 30.8644 13.1689 30.2568 12.4398 30.2568C12.4177 30.2568 12.3956 30.2568 12.3735 30.2568C12.3514 30.2568 12.3403 30.2568 12.3182 30.2568H5.94386C5.21473 30.2568 4.61816 30.8644 4.61816 31.607C4.61816 32.3497 5.21473 32.9573 5.94386 32.9573H11.103V37.6606C11.103 38.4033 11.6996 39.0109 12.4287 39.0109H16.3727C16.4058 39.0109 16.4279 39.0109 16.461 39.0109C16.9029 41.0362 18.6816 42.544 20.8027 42.544C22.9238 42.544 24.6914 41.0362 25.1444 39.0109H38.9095H41.0306C41.4836 41.025 43.2512 42.544 45.3723 42.544C47.4934 42.544 49.261 41.0362 49.7139 39.0109H52.6746C53.4038 39.0109 54.0003 38.4033 54.0003 37.6606V26.4423C54.0003 23.5281 53.1718 21.0751 51.6251 19.3648ZM20.8027 39.8548C19.8084 39.8548 19.002 39.0334 19.002 38.0207C19.002 37.008 19.8084 36.1866 20.8027 36.1866C21.797 36.1866 22.6034 37.008 22.6034 38.0207C22.6034 39.0334 21.797 39.8548 20.8027 39.8548ZM45.3723 39.8548C44.378 39.8548 43.5715 39.0334 43.5715 38.0207C43.5715 37.008 44.378 36.1866 45.3723 36.1866C46.3665 36.1866 47.173 37.008 47.173 38.0207C47.162 39.0334 46.3555 39.8548 45.3723 39.8548ZM51.3489 36.3216H49.493C48.8301 34.6676 47.2282 33.4861 45.3723 33.4861C43.5163 33.4861 41.9144 34.6563 41.2516 36.3216H40.2352V19.5673H45.7921C49.272 19.5673 51.3489 22.1441 51.3489 26.4536V36.3216Z" fill="black"/>
<path d="M22.7688 28.2652C22.2496 28.7941 22.2496 29.6493 22.7688 30.1781C23.0229 30.4369 23.3654 30.5719 23.7079 30.5719C24.0503 30.5719 24.3818 30.4369 24.6469 30.1781L28.0606 26.7012L28.0716 26.69C28.0937 26.6562 28.1268 26.6337 28.1489 26.5999C28.16 26.5774 28.171 26.5662 28.1821 26.5437C28.1931 26.5212 28.2042 26.5099 28.2263 26.4874C28.2373 26.4649 28.2484 26.4424 28.2594 26.4199C28.2705 26.3974 28.2815 26.3862 28.2926 26.3637C28.3036 26.3411 28.3146 26.3186 28.3257 26.2961C28.3367 26.2736 28.3478 26.2624 28.3478 26.2399C28.3588 26.2174 28.3588 26.1949 28.3699 26.1724C28.3809 26.1499 28.3809 26.1274 28.392 26.1161C28.403 26.0936 28.403 26.0711 28.403 26.0486C28.403 26.0261 28.4141 26.0036 28.4141 25.9811C28.4141 25.9586 28.4251 25.9361 28.4251 25.9023C28.4251 25.8798 28.4362 25.8686 28.4362 25.8461C28.4472 25.756 28.4472 25.666 28.4362 25.576C28.4362 25.5535 28.4362 25.5423 28.4251 25.5197C28.4251 25.4972 28.4141 25.4747 28.4141 25.441C28.4141 25.4185 28.403 25.396 28.403 25.3735C28.403 25.351 28.392 25.3285 28.392 25.306C28.3809 25.2835 28.3809 25.2609 28.3699 25.2497C28.3588 25.2272 28.3588 25.2047 28.3478 25.1822C28.3367 25.1597 28.3257 25.1484 28.3257 25.1259C28.3146 25.1034 28.3036 25.0809 28.2926 25.0584C28.2815 25.0359 28.2705 25.0247 28.2594 25.0022C28.2484 24.9796 28.2373 24.9571 28.2263 24.9346C28.2152 24.9121 28.2042 24.9009 28.1821 24.8784C28.171 24.8559 28.16 24.8446 28.1489 24.8221C28.1268 24.7884 28.0937 24.7659 28.0716 24.7321L28.0606 24.7209L24.8126 21.4127C24.2934 20.8839 23.4538 20.8839 22.9345 21.4127C22.4153 21.9416 22.4153 22.7968 22.9345 23.3256L23.9178 24.327H1.3257C0.596563 24.327 0 24.9346 0 25.6773C0 26.4199 0.596563 27.0275 1.3257 27.0275H23.9067L22.7688 28.2652Z" fill="black"/>
</g>
</svg>
