<svg width="87" height="38" viewBox="0 0 87 38" fill="none" xmlns="http://www.w3.org/2000/svg">
<path d="M74.8616 18.11C74.9952 18.0224 75.069 17.9943 75.1182 17.9418C75.5821 17.4688 76.1373 17.1255 76.7418 16.8592C77.0546 16.7225 77.3919 16.663 77.7047 16.5579C78.1826 16.3932 78.6465 16.4808 79.1174 16.4493C79.2756 16.4388 79.4443 16.4107 79.5778 16.5509C79.6024 16.5789 79.6657 16.5789 79.7114 16.5824C80.2455 16.6174 80.734 16.8206 81.1979 17.0519C81.5845 17.2446 81.957 17.5109 82.2592 17.8192C82.7969 18.3622 83.1659 19.0314 83.4611 19.7356C83.4646 19.7461 83.4681 19.7567 83.4717 19.7707C83.5349 20.1701 83.5947 20.5695 83.6579 20.9654C83.6825 21.1231 83.7142 21.2807 83.7317 21.4419C83.7458 21.5575 83.7528 21.6731 83.7423 21.7887C83.7212 22.006 83.686 22.2197 83.6544 22.4369C83.563 23.0886 83.4822 23.7367 83.2573 24.3639C83.1062 24.7843 83.0078 25.2223 82.8813 25.6532C82.8426 25.7863 82.8004 25.916 82.7477 26.0456C82.572 26.4625 82.5825 26.939 82.3471 27.3384C82.3084 27.4015 82.3365 27.4996 82.319 27.5802C82.2909 27.7238 82.2311 27.8675 82.2241 28.0111C82.203 28.358 82.1854 28.7083 82.21 29.0517C82.2206 29.2164 82.4209 29.2829 82.5896 29.2269C82.9199 29.1148 83.2292 29.0972 83.5701 29.2444C83.7493 29.3215 83.9285 29.3775 84.0832 29.5037C84.3889 29.7559 84.5681 30.0502 84.5084 30.4636C84.4873 30.6108 84.4978 30.7685 84.5049 30.9191C84.547 31.5743 84.2202 31.9982 83.6614 32.2855C83.5209 32.3591 83.3908 32.4572 83.2467 32.5273C83.0043 32.6464 82.7442 32.6954 82.4701 32.6779C82.203 32.6639 81.9289 32.6569 81.6618 32.6814C81.3807 32.7059 81.1347 32.6149 80.8887 32.5133C80.7235 32.4432 80.5759 32.3311 80.4107 32.261C79.6657 31.9527 79.258 31.329 78.9242 30.6528C78.6922 30.1799 78.5868 29.6788 78.6219 29.1463C78.65 28.7504 78.6254 28.351 78.629 27.9551C78.6325 27.7869 78.5833 27.6012 78.7379 27.4646C78.759 27.4471 78.759 27.398 78.7625 27.3665C78.7976 26.7849 78.998 26.2488 79.1772 25.7023C79.3072 25.3134 79.3951 24.9104 79.5005 24.5145C79.634 24.0275 79.7711 23.544 79.9046 23.057C79.9222 22.9905 79.9257 22.9204 79.9292 22.8503C79.9398 22.4404 79.9503 22.034 79.9574 21.6241C79.9644 21.2142 79.8344 20.8112 79.5989 20.5239C79.2686 20.121 78.8679 19.7321 78.281 19.6796C78.0526 19.6586 77.8242 19.557 77.6028 19.5745C76.8929 19.634 76.2322 19.8232 75.7051 20.3628C75.3009 20.7762 74.9003 21.1896 74.6508 21.7152C74.4505 22.1391 74.2783 22.5806 74.1236 23.022C73.9655 23.4635 73.8319 23.9154 73.7089 24.3709C73.6632 24.5356 73.6808 24.7178 73.6738 24.8929C73.6668 25.0786 73.6949 25.2643 73.5684 25.429C73.5262 25.485 73.5508 25.5866 73.5332 25.6672C73.5086 25.7758 73.47 25.8809 73.4454 25.9896C73.4243 26.0771 73.3997 26.1682 73.3962 26.2593C73.3821 26.5817 73.4243 26.911 73.2661 27.2193C73.224 27.3034 73.2626 27.4295 73.2451 27.5311C73.1572 28.0181 73.0623 28.5051 72.9709 28.9921C72.9674 29.0167 72.9639 29.0377 72.9604 29.0622C72.9042 29.4861 72.862 29.9101 72.7847 30.3305C72.6898 30.842 72.4895 31.308 72.1205 31.7004C71.6882 32.1594 71.2068 32.5448 70.6339 32.8146C70.5355 32.8601 70.4371 32.9127 70.2825 32.9932C70.3247 32.8881 70.3352 32.8216 70.3739 32.783C70.7991 32.3416 70.901 31.8055 70.8834 31.2134C70.8659 30.5162 70.532 30.0082 70.0014 29.5983C69.8081 29.4476 69.6113 29.3215 69.3512 29.3215C69.2774 29.3215 69.1896 29.2969 69.1263 29.2549C68.9822 29.1638 68.8451 29.1813 68.694 29.2409C68.5781 29.2864 68.448 29.3215 68.325 29.3215C68.065 29.3215 67.8541 29.4406 67.6643 29.5807C67.2672 29.8715 66.9931 30.2674 66.8139 30.7229C66.7682 30.835 66.7963 30.9752 66.7823 31.1048C66.7155 31.7039 66.842 32.247 67.2251 32.7235C67.2356 32.7375 67.2251 32.769 67.2251 32.8251C66.5573 32.5413 66.1497 31.9492 65.6014 31.5112C65.2711 31.9597 64.8002 32.1559 64.3539 32.3871C64.0446 32.5483 63.7178 32.6814 63.3874 32.8005C63.1871 32.8741 62.9411 32.7865 62.7584 32.9582C62.0063 33.0318 61.2543 33.2035 60.5022 33.0913C60.1824 33.0423 59.8556 33.0178 59.5428 32.9512C58.7626 32.783 58.0035 32.5133 57.3393 32.0788C56.8473 31.7565 56.3307 31.4236 56.039 30.8666C55.916 30.6353 55.7052 30.4531 55.5857 30.2219C55.4205 29.9101 55.2272 29.6123 55.178 29.2444C55.1324 28.894 54.9918 28.5577 54.9426 28.2073C54.8899 27.843 54.8407 27.4646 54.9988 27.1072C55.0234 27.0546 55.041 26.9951 55.041 26.939C55.0515 26.3785 55.28 25.8844 55.526 25.401C55.7403 24.984 56.0461 24.6196 56.3659 24.2798C56.6365 23.9925 56.9949 23.8208 57.2972 23.5791C57.6872 23.2673 58.1722 23.1867 58.5799 22.9344C58.731 22.8398 58.9208 22.8013 59.1 22.7592C59.3811 22.6927 59.6728 22.6681 59.9434 22.5771C60.3511 22.4404 60.7798 22.5035 61.1805 22.4089C61.6338 22.3003 62.0942 22.3809 62.5335 22.2757C63.0922 22.1426 63.6897 22.1917 64.2098 21.9009C64.266 21.8693 64.3468 21.8763 64.4136 21.8553C64.6702 21.7817 64.8388 21.5645 64.8459 21.2982C64.8494 21.1336 64.8459 20.9724 64.8459 20.8077C64.8494 20.2402 64.7123 19.6971 64.3925 19.2416C64.1922 18.9578 63.9076 18.6986 63.5772 18.5479C63.0255 18.2922 62.428 18.173 61.8271 18.2641C61.2297 18.3552 60.6955 18.6145 60.2843 19.084C60.0699 19.3292 60.0313 19.648 59.9013 19.9283C59.8731 19.9879 59.8696 20.0685 59.8275 20.1175C59.5639 20.4223 59.3249 20.7692 58.9243 20.9023C58.5412 21.0285 58.1687 21.1826 57.7224 21.053C57.4412 20.9689 57.1812 20.8953 56.9387 20.7272C56.6294 20.5099 56.4432 20.2226 56.3448 19.8653C56.2991 19.7006 56.2218 19.5359 56.2112 19.3713C56.1761 18.8843 56.2815 18.4288 56.5838 18.0294C56.8333 17.7 57.0547 17.3427 57.3358 17.0449C57.8278 16.5228 58.4252 16.1409 59.1 15.8712C59.6377 15.6539 60.1859 15.5103 60.7587 15.3982C61.8658 15.1845 62.9728 15.2615 64.0762 15.3316C64.9829 15.3877 65.8475 15.71 66.5925 16.232C67.1899 16.6525 67.6819 17.1955 67.9701 17.8927C68.0755 18.152 68.2196 18.3973 68.3321 18.6565C68.4164 18.8562 68.4832 19.0629 68.5429 19.2697C68.6378 19.6095 68.7257 19.9494 68.7995 20.2962C68.8311 20.4434 68.81 20.5975 68.8276 20.7482C68.8698 21.1161 68.9435 21.4804 68.9576 21.8483C68.9857 22.7102 68.9822 23.5756 68.9963 24.4375C68.9998 24.6792 68.9717 24.921 69.0841 25.1592C69.1333 25.2608 69.0771 25.408 69.0701 25.5341C69.049 25.8109 69.0209 26.0842 69.0103 26.3609C69.0103 26.4065 69.0876 26.452 69.1263 26.5011C69.165 26.452 69.2317 26.403 69.2352 26.3504C69.2739 25.972 69.4883 25.6217 69.4215 25.2258C69.6429 24.9315 69.4602 24.5356 69.671 24.2343C69.7062 24.1852 69.6886 24.0976 69.6956 24.0275C69.7062 23.8559 69.6745 23.6807 69.8116 23.5335C69.8432 23.4985 69.8327 23.4214 69.8362 23.3654C69.8467 23.1587 69.8151 22.9519 69.9592 22.7662C70.0049 22.7067 69.9732 22.5841 69.9803 22.493C69.9873 22.3563 69.9486 22.2092 70.0822 22.1041C70.1033 22.0866 70.1138 22.041 70.1138 22.006C70.1068 21.6451 70.1595 21.2947 70.2544 20.9444C70.3774 20.4994 70.4196 20.0369 70.4582 19.5745C70.4863 19.2346 70.6304 18.9088 70.6937 18.5724C70.7675 18.2011 70.8061 17.8192 70.8659 17.4443C70.908 17.171 70.9643 16.9012 71.0135 16.6279C71.0943 16.19 71.14 15.7415 71.2911 15.3176C71.3157 15.244 71.3087 15.1564 71.3087 15.0759C71.3122 14.3506 71.3227 13.6289 71.3087 12.9036C71.3016 12.5498 71.1646 12.2309 70.9256 11.9682C70.7218 11.7439 70.5109 11.5302 70.3001 11.3165C70.0049 11.0152 69.8432 10.6333 69.7132 10.2479C69.6499 10.0622 69.6499 9.83097 69.8151 9.65579C69.7764 9.33696 70.0435 9.16529 70.1736 8.93405C70.3704 8.5907 70.7464 8.4961 71.0978 8.46106C71.5863 8.41552 72.0853 8.40501 72.5703 8.46807C72.9604 8.51712 73.3329 8.66778 73.6808 8.91303C74.085 9.20032 74.4223 9.54017 74.6859 9.94309C74.9389 10.3285 75.2271 10.7104 75.2869 11.1904C75.5293 11.4777 75.3255 11.8806 75.5504 12.1749C75.5785 12.2134 75.568 12.2905 75.561 12.3466C75.5223 12.8616 75.6629 13.3906 75.4415 13.8951C75.4099 13.9652 75.4274 14.0563 75.4239 14.1369C75.4099 14.3191 75.4555 14.5083 75.3115 14.6694C75.2728 14.7115 75.2869 14.8026 75.2833 14.8726C75.2728 15.1039 75.3185 15.3421 75.1568 15.5453C75.1393 15.5699 75.1428 15.6119 75.1428 15.6469C75.1322 15.9237 75.1111 16.1865 75.0198 16.4633C74.8968 16.8417 74.8792 17.2586 74.83 17.6615C74.83 17.7596 74.8511 17.8857 74.8616 18.11ZM64.8529 24.6827C64.4804 24.6091 64.2098 24.8194 63.9076 24.8754C63.5737 24.9385 63.2644 25.1172 62.9095 25.0961C62.8287 25.0926 62.7303 25.0716 62.667 25.1066C62.3613 25.2783 62.0309 25.2293 61.7076 25.2328C61.321 25.2363 60.9626 25.3624 60.6147 25.5061C60.4003 25.5936 60.1929 25.7023 60.0067 25.8389C59.4233 26.2628 59.1035 26.8304 59.0508 27.5627C59.0262 27.8885 59.1176 28.1898 59.23 28.4666C59.3425 28.7504 59.5252 29.0307 59.7466 29.2374C60.2527 29.7174 60.9274 29.8435 61.5846 29.9661C62.1574 30.0712 62.7127 29.8295 63.282 29.8155C63.2926 29.8155 63.3066 29.812 63.3172 29.805C63.6405 29.6683 63.9849 29.5632 64.2836 29.3845C64.6034 29.1918 64.8845 28.9676 64.867 28.4911C64.8283 27.3384 64.8529 26.1787 64.8529 25.0261C64.8529 24.928 64.8529 24.8229 64.8529 24.6827Z" fill="#FF5E02"/>
<path d="M32.8517 17.1361C33.0098 17.1641 33.1152 17.1711 33.2312 17.0695C33.8532 16.5124 34.5913 16.148 35.3785 15.8923C35.7158 15.7837 36.0813 15.7556 36.4327 15.6891C36.5452 15.668 36.6541 15.6295 36.7666 15.6155C36.9283 15.598 37.111 15.5384 37.2481 15.5945C37.5222 15.7066 37.7998 15.7031 38.0739 15.6961C38.3902 15.6856 38.6643 15.8152 38.949 15.8958C39.4796 16.0499 39.9716 16.3197 40.4074 16.6526C40.7096 16.8838 41.0224 17.1115 41.2579 17.4304C41.4828 17.7352 41.8131 17.9559 41.9748 18.3133C42.0205 18.4149 42.0873 18.506 42.154 18.6146C42.4106 18.506 42.5547 18.2887 42.7198 18.1065C42.9131 17.8928 43.0783 17.6546 43.2681 17.4409C43.4367 17.2517 43.616 17.0695 43.7952 16.8943C44.245 16.4528 44.7897 16.1726 45.3837 15.9764C45.823 15.8292 46.2728 15.7486 46.7296 15.668C47.0424 15.612 47.3657 15.5034 47.6539 15.5875C48.1143 15.7206 48.6028 15.6225 49.0526 15.8187C49.2705 15.9133 49.527 15.9133 49.7519 15.9974C50.1807 16.1585 50.5989 16.3442 50.9679 16.6245C51.1682 16.7787 51.3791 16.9223 51.5653 17.094C51.9343 17.4304 52.2084 17.8368 52.4896 18.2467C52.7918 18.6881 53.0132 19.1611 53.2276 19.6446C53.3436 19.9039 53.3998 20.1912 53.4771 20.4645C53.5544 20.7413 53.6247 21.018 53.702 21.2948C53.7126 21.3404 53.7336 21.3824 53.7372 21.428C53.7934 22.2163 53.934 22.9941 53.9304 23.7894C53.9129 26.2314 53.9234 28.6699 53.9269 31.1119C53.9269 31.5604 53.8777 31.9948 53.6352 32.3802C53.3787 32.7831 53.0378 33.0739 52.5282 33.0844C52.1768 33.0914 51.8254 33.0879 51.4739 33.0879C51.0593 33.0879 50.7219 32.8882 50.4161 32.6465C50.2264 32.4958 50.142 32.2611 50.0577 32.0298C49.8925 31.5884 49.9241 31.1399 49.9241 30.688C49.9241 28.2249 49.9241 25.7619 49.9206 23.2954C49.9206 23.0887 49.9523 22.8749 49.8152 22.6857C49.7836 22.6437 49.7801 22.5736 49.7871 22.5176C49.8468 21.999 49.5797 21.5576 49.4427 21.0881C49.3794 20.8709 49.165 20.6992 49.0491 20.4925C48.796 20.03 48.3532 19.8198 47.9104 19.6061C47.8894 19.5956 47.8718 19.5675 47.8542 19.5675C47.306 19.5675 46.7542 19.5255 46.213 19.5886C45.9073 19.6236 45.6051 19.7988 45.3345 19.9635C44.7405 20.3173 44.2696 20.7973 43.9533 21.4209C43.8585 21.6101 43.8409 21.8134 43.7917 22.0096C43.6933 22.3949 43.7109 22.7909 43.616 23.1657C43.5492 23.432 43.5246 23.6878 43.5246 23.954C43.5246 26.382 43.5105 28.8135 43.5351 31.2415C43.5387 31.7706 43.3735 32.219 43.0326 32.5659C42.7479 32.8567 42.3965 33.13 41.9186 33.0949C41.6163 33.0704 41.3071 33.1089 41.0048 33.0809C40.4109 33.0249 39.9611 32.7446 39.6729 32.198C39.571 32.0088 39.5499 31.8301 39.5499 31.6374C39.5394 29.0448 39.5534 26.4521 39.5042 23.863C39.4937 23.2638 39.4761 22.6367 39.2688 22.0516C39.2618 22.0306 39.2547 22.0061 39.2547 21.9815C39.2618 21.3579 38.8787 20.8849 38.6186 20.3664C38.5448 20.2157 38.3445 20.1281 38.2145 20.002C37.8806 19.6867 37.48 19.536 37.0231 19.529C36.7771 19.5255 36.5311 19.515 36.2851 19.5255C35.5788 19.557 34.9603 19.8163 34.4577 20.3068C34.1555 20.6046 33.8076 20.8709 33.6318 21.2808C33.4913 21.6031 33.291 21.8904 33.2453 22.2583C33.1996 22.6052 33.0731 22.9415 32.9922 23.2884C32.9676 23.4005 32.9782 23.5196 32.9782 23.6387C32.9782 26.2314 32.9817 28.824 32.9747 31.4167C32.9747 32.2716 32.5811 32.7095 31.8888 33.0599C31.822 33.0949 31.7271 33.0844 31.6463 33.0879C31.2948 33.0914 30.9434 33.0809 30.592 33.0984C30.1703 33.116 29.8364 32.9233 29.5307 32.678C29.3971 32.5694 29.2952 32.4012 29.2249 32.2401C29.1125 31.9808 29 31.7215 29 31.4237C29.0035 26.6939 29 21.964 29.007 17.2377C29.007 16.6771 29.3233 16.2496 29.7626 15.9238C29.868 15.8467 30.0191 15.8152 30.1562 15.7907C30.9258 15.6505 31.6955 15.5945 32.3702 16.0815C32.7111 16.3162 32.8622 16.6841 32.8517 17.1361Z" fill="#FF5E02"/>
<path d="M17.2451 28.9853C17.5122 28.9853 17.7757 29.0168 18.0252 28.9783C18.5383 28.8977 19.206 29.4968 19.3501 30.0013C19.4204 30.2431 19.5188 30.4743 19.4942 30.7441C19.4626 31.0594 19.3818 31.3537 19.1955 31.606C19.069 31.7777 18.9952 31.9774 18.8089 32.1245C18.4821 32.3838 18.1342 32.5555 17.7336 32.6921C17.1537 32.8918 16.5738 32.8428 16.0115 32.7832C15.3965 32.7201 14.7815 32.5169 14.3423 32.0089C14.3212 31.9809 14.2931 31.9599 14.2685 31.9353C13.9135 31.585 13.9205 31.592 13.5059 31.8688C12.9647 32.2296 12.3883 32.538 11.7838 32.7762C11.5238 32.8778 11.2216 32.8778 10.951 32.9584C10.1146 33.2141 9.26409 33.067 8.41715 33.088C8.2098 33.0915 8.013 33.0845 7.80917 32.9899C7.60886 32.8988 7.36286 32.8673 7.14497 32.8358C6.66351 32.7657 6.28045 32.5029 5.85522 32.3207C5.46162 32.1491 5.14533 31.8618 4.81148 31.5955C4.21405 31.112 3.81342 30.5059 3.49713 29.8262C3.35656 29.5249 3.29681 29.199 3.1949 28.8907C3.00513 28.3231 3.10704 27.7626 3.07893 27.1985C3.0719 27.0688 3.13516 26.9322 3.16678 26.7991C3.18084 26.743 3.20896 26.6905 3.21247 26.6344C3.23356 26.0983 3.49361 25.6464 3.74313 25.2014C3.88722 24.9422 4.12267 24.7354 4.27379 24.4762C4.45302 24.1644 4.75173 23.9892 5.00828 23.7755C5.33159 23.5057 5.71465 23.3165 6.11177 23.1623C6.5862 22.9801 7.05008 22.7839 7.52803 22.6158C7.767 22.5317 8.02003 22.4826 8.27306 22.4476C8.81426 22.3775 9.35898 22.3075 9.9037 22.2724C10.2059 22.2514 10.5011 22.2058 10.7998 22.1708C11.2145 22.1253 11.6257 22.0657 12.0298 21.9711C12.304 21.9045 12.5746 21.7889 12.8241 21.6593C12.9576 21.5892 13.0771 21.4701 13.0595 21.2669C13.0349 20.9761 13.0595 20.6818 13.0314 20.3945C12.9893 19.904 12.8276 19.466 12.5183 19.0596C12.2864 18.7548 11.9771 18.5866 11.6679 18.4044C11.3938 18.2433 11.088 18.1697 10.7612 18.1907C10.5749 18.2047 10.3852 18.2082 10.1989 18.1907C9.72447 18.1417 9.29924 18.2853 8.90915 18.5271C8.6034 18.7163 8.37849 18.9966 8.23792 19.3364C8.10789 19.6552 8.00597 19.9846 7.78457 20.2614C7.56317 20.5381 7.28554 20.7168 6.96574 20.8605C6.62134 21.0111 6.2664 21.0111 5.90442 20.9901C5.64085 20.9761 5.40891 20.885 5.20508 20.7133C5.12776 20.6503 5.02585 20.6117 4.94502 20.5451C4.85013 20.4681 4.7447 20.391 4.68848 20.2894C4.5479 20.0301 4.38625 19.7673 4.31596 19.4871C4.25622 19.2523 4.30893 18.9895 4.31947 18.7408C4.31947 18.6987 4.3757 18.6567 4.3757 18.6147C4.34407 18.1802 4.72362 17.9385 4.86419 17.5811C4.92042 17.434 5.09965 17.3183 5.21211 17.1747C5.37728 16.9645 5.56354 16.7648 5.77088 16.5966C6.168 16.2708 6.6108 16.0255 7.08523 15.8048C7.52803 15.6016 7.98137 15.4439 8.44175 15.3143C8.86346 15.1952 9.30978 15.1391 9.74555 15.1181C10.3289 15.09 10.9228 15.069 11.4992 15.1391C12.311 15.2372 13.0947 15.4509 13.8573 15.7908C14.5707 16.1096 15.1751 16.5405 15.6917 17.1046C16.0151 17.4585 16.2365 17.8929 16.4473 18.3274C16.6582 18.7653 16.7917 19.2208 16.9147 19.6938C17.0061 20.0406 17.0272 20.377 17.0272 20.7238C17.0307 23.0362 17.0272 25.3486 17.0307 27.6609C17.0307 27.8081 17.0658 27.9588 17.0834 28.1059C17.0904 28.1515 17.1115 28.2075 17.094 28.239C16.9393 28.5158 17.0904 28.7295 17.2451 28.9853ZM13.0103 24.5778C12.7924 24.6408 12.6413 24.6829 12.4902 24.7319C12.2829 24.7985 12.0826 24.9106 11.8717 24.9316C11.4922 24.9702 11.1372 25.1664 10.7436 25.0963C10.7014 25.0893 10.6522 25.1138 10.6066 25.1208C10.4484 25.1524 10.2938 25.1979 10.1356 25.2154C9.79475 25.254 9.45738 25.247 9.10946 25.3486C8.52258 25.5167 8.07275 25.8426 7.67914 26.277C7.5702 26.3961 7.46477 26.5223 7.39097 26.6659C7.18363 27.0864 7.1766 27.5348 7.21174 27.9938C7.24337 28.3792 7.42963 28.691 7.64049 28.9923C8.07626 29.616 8.76155 29.8402 9.45035 29.9558C10.0021 30.0469 10.5784 30.0259 11.1513 29.8787C11.6854 29.7421 12.1704 29.5459 12.6519 29.2901C12.9471 29.1325 13.0455 28.9398 13.0455 28.6314C13.0385 27.4297 13.0455 26.228 13.042 25.0262C13.042 24.9071 13.0244 24.781 13.0103 24.5778Z" fill="#FF5E02"/>
<path d="M20.3547 18.9683C20.3547 15.9202 20.3617 12.8721 20.3477 9.82396C20.3477 9.49812 20.4285 9.20032 20.5374 8.92353C20.6183 8.72033 20.8432 8.54164 21.047 8.42252C21.2262 8.31741 21.4617 8.27537 21.6761 8.25785C22.0134 8.22982 22.3578 8.26836 22.6952 8.24033C23.0748 8.2088 23.4051 8.34544 23.6511 8.58018C23.8444 8.76587 24.0412 9.00762 24.0588 9.32295C24.0693 9.48411 24.1115 9.63827 24.1361 9.79943C24.1431 9.85549 24.1466 9.91505 24.1396 9.97111C24.115 10.1778 24.0658 10.381 24.0658 10.5842C24.0623 15.7696 24.0588 20.9514 24.0693 26.1367C24.0693 26.7954 24.0974 27.4681 24.2274 28.1092C24.3153 28.5472 24.5191 28.9886 25.0709 29.1498C25.3204 29.2234 25.5664 29.2759 25.8124 29.2794C26.1779 29.2794 26.5258 29.367 26.8807 29.4231C27.2111 29.4756 27.4219 29.7209 27.559 29.9731C27.7769 30.3761 27.9245 30.8245 27.8472 31.2905C27.7839 31.6724 27.7417 32.0683 27.5414 32.4081C27.3446 32.741 27.0459 32.9442 26.6383 32.9442C25.96 32.9407 25.2782 32.9442 24.6 32.9372C24.5016 32.9372 24.4032 32.8916 24.3048 32.8636C24.2485 32.8496 24.1958 32.8216 24.1431 32.8111C23.8514 32.7585 23.5492 32.734 23.2716 32.6464C23.0361 32.5728 22.8217 32.4187 22.5968 32.31C22.0837 32.0613 21.7007 31.6479 21.3633 31.2134C21.1032 30.8771 20.9029 30.4847 20.7905 30.0607C20.7342 29.8435 20.6393 29.6403 20.5585 29.4301C20.5515 29.4091 20.5304 29.3915 20.5269 29.3705C20.4742 29.0202 20.3793 28.6698 20.3793 28.3194C20.3687 25.2012 20.3723 22.083 20.3723 18.9683C20.3582 18.9683 20.3547 18.9683 20.3547 18.9683Z" fill="#FF5E02"/>
</svg>
