<svg width="133" height="58" viewBox="0 0 133 58" fill="none" xmlns="http://www.w3.org/2000/svg">
<path d="M114.444 27.6417C114.648 27.508 114.761 27.4652 114.836 27.385C115.545 26.6631 116.394 26.139 117.318 25.7326C117.796 25.5241 118.312 25.4332 118.79 25.2727C119.521 25.0214 120.23 25.1551 120.95 25.107C121.192 25.0909 121.45 25.0481 121.654 25.262C121.691 25.3048 121.788 25.3048 121.858 25.3102C122.674 25.3636 123.421 25.6738 124.13 26.0267C124.721 26.3209 125.291 26.7273 125.753 27.1979C126.575 28.0267 127.139 29.0481 127.59 30.123C127.596 30.139 127.601 30.1551 127.606 30.1765C127.703 30.7861 127.794 31.3957 127.891 32C127.929 32.2406 127.977 32.4813 128.004 32.7273C128.025 32.9037 128.036 33.0802 128.02 33.2567C127.988 33.5882 127.934 33.9144 127.886 34.246C127.746 35.2406 127.623 36.2299 127.279 37.1872C127.048 37.8289 126.897 38.4973 126.704 39.1551C126.645 39.3583 126.58 39.5562 126.5 39.754C126.231 40.3904 126.247 41.1176 125.887 41.7273C125.828 41.8235 125.871 41.9733 125.844 42.0963C125.801 42.3155 125.71 42.5348 125.699 42.754C125.667 43.2834 125.64 43.8182 125.678 44.3422C125.694 44.5936 126 44.6952 126.258 44.6096C126.763 44.4385 127.236 44.4118 127.757 44.6364C128.031 44.754 128.305 44.8396 128.541 45.0321C129.009 45.4171 129.283 45.8663 129.191 46.4973C129.159 46.7219 129.175 46.9626 129.186 47.1925C129.25 48.1925 128.751 48.8396 127.897 49.2781C127.682 49.3904 127.483 49.5401 127.263 49.6471C126.892 49.8289 126.494 49.9037 126.075 49.877C125.667 49.8556 125.248 49.8449 124.84 49.8824C124.41 49.9198 124.034 49.7808 123.658 49.6257C123.405 49.5187 123.18 49.3476 122.927 49.2406C121.788 48.7701 121.165 47.8182 120.654 46.7861C120.3 46.0642 120.139 45.2995 120.192 44.4866C120.235 43.8824 120.198 43.2727 120.203 42.6685C120.209 42.4118 120.133 42.1283 120.37 41.9198C120.402 41.8931 120.402 41.8182 120.407 41.7701C120.461 40.8824 120.767 40.0642 121.041 39.2299C121.24 38.6364 121.374 38.0214 121.536 37.4171C121.74 36.6738 121.949 35.9358 122.153 35.1925C122.18 35.0909 122.186 34.984 122.191 34.877C122.207 34.2513 122.223 33.631 122.234 33.0054C122.245 32.3797 122.046 31.7647 121.686 31.3262C121.181 30.7112 120.569 30.1176 119.671 30.0374C119.322 30.0054 118.973 29.8503 118.634 29.877C117.549 29.9679 116.539 30.2567 115.733 31.0802C115.115 31.7112 114.503 32.3422 114.122 33.1444C113.815 33.7914 113.552 34.4652 113.316 35.139C113.074 35.8128 112.87 36.5027 112.682 37.1979C112.612 37.4492 112.639 37.7273 112.628 37.9947C112.617 38.2781 112.66 38.5615 112.467 38.8128C112.402 38.8984 112.44 39.0535 112.413 39.1765C112.376 39.3422 112.316 39.5027 112.279 39.6685C112.247 39.8021 112.209 39.9412 112.204 40.0802C112.182 40.5722 112.247 41.0749 112.005 41.5455C111.94 41.6738 111.999 41.8663 111.973 42.0214C111.838 42.7647 111.693 43.508 111.554 44.2513C111.548 44.2888 111.543 44.3209 111.537 44.3583C111.451 45.0054 111.387 45.6524 111.269 46.2941C111.124 47.0749 110.818 47.7861 110.253 48.385C109.593 49.0856 108.857 49.6738 107.981 50.0856C107.83 50.1551 107.68 50.2353 107.444 50.3583C107.508 50.1979 107.524 50.0963 107.583 50.0374C108.233 49.3636 108.389 48.5455 108.362 47.6417C108.335 46.5775 107.825 45.8021 107.014 45.1765C106.718 44.9465 106.418 44.754 106.02 44.754C105.907 44.754 105.773 44.7166 105.676 44.6524C105.456 44.5134 105.246 44.5401 105.015 44.631C104.838 44.7005 104.639 44.754 104.451 44.754C104.054 44.754 103.731 44.9358 103.441 45.1497C102.834 45.5936 102.415 46.1979 102.141 46.8931C102.071 47.0642 102.114 47.2781 102.093 47.4759C101.991 48.3904 102.184 49.2193 102.77 49.9465C102.786 49.9679 102.77 50.016 102.77 50.1016C101.749 49.6685 101.126 48.7647 100.288 48.0963C99.7826 48.7808 99.0627 49.0802 98.3804 49.4332C97.9076 49.6791 97.4079 49.8824 96.9029 50.0642C96.5967 50.1765 96.2206 50.0428 95.9413 50.3048C94.7916 50.4171 93.6419 50.6791 92.4922 50.508C92.0033 50.4332 91.5036 50.3957 91.0255 50.2941C89.8328 50.0374 88.6724 49.6257 87.657 48.9626C86.9048 48.4706 86.1151 47.9626 85.6692 47.1123C85.4811 46.7594 85.1588 46.4813 84.9761 46.1283C84.7236 45.6524 84.4281 45.1979 84.3529 44.6364C84.2831 44.1016 84.0682 43.5882 83.993 43.0535C83.9124 42.4973 83.8372 41.9198 84.0789 41.3743C84.1165 41.2941 84.1434 41.2032 84.1434 41.1177C84.1595 40.262 84.5087 39.508 84.8848 38.7701C85.2125 38.1337 85.6799 37.5775 86.1688 37.0588C86.5825 36.6203 87.1305 36.3583 87.5925 35.9893C88.1888 35.5134 88.9302 35.3904 89.5534 35.0053C89.7845 34.861 90.0746 34.8021 90.3486 34.738C90.7784 34.6364 91.2243 34.5989 91.6379 34.4599C92.2611 34.2513 92.9166 34.3476 93.529 34.2032C94.2221 34.0374 94.9259 34.1604 95.5974 34C96.4516 33.7968 97.365 33.8717 98.1601 33.4278C98.246 33.3797 98.3696 33.3904 98.4717 33.3583C98.8639 33.246 99.1217 32.9144 99.1325 32.508C99.1379 32.2567 99.1325 32.0107 99.1325 31.7594C99.1379 30.8931 98.9283 30.0642 98.4395 29.369C98.1332 28.9358 97.6981 28.5401 97.193 28.3102C96.3496 27.9198 95.4363 27.738 94.5176 27.877C93.6043 28.016 92.7876 28.4118 92.1591 29.1283C91.8314 29.5027 91.7723 29.9893 91.5735 30.4171C91.5305 30.508 91.5251 30.631 91.4607 30.7059C91.0577 31.1711 90.6924 31.7005 90.0799 31.9037C89.4943 32.0963 88.9249 32.3316 88.2426 32.1337C87.8128 32.0054 87.4152 31.893 87.0445 31.6364C86.5717 31.3048 86.287 30.8663 86.1366 30.3209C86.0667 30.0695 85.9485 29.8182 85.9324 29.5668C85.8787 28.8235 86.0399 28.1283 86.5019 27.5187C86.8833 27.016 87.2218 26.4706 87.6516 26.016C88.4037 25.2193 89.3171 24.6364 90.3486 24.2246C91.1705 23.8931 92.0086 23.6738 92.8844 23.5027C94.5767 23.1765 96.269 23.2941 97.9559 23.4011C99.342 23.4866 100.664 23.9786 101.803 24.7754C102.716 25.4171 103.468 26.246 103.909 27.3102C104.07 27.7059 104.29 28.0802 104.462 28.4759C104.591 28.7808 104.693 29.0963 104.784 29.4118C104.929 29.9305 105.064 30.4492 105.176 30.9786C105.225 31.2032 105.193 31.4385 105.219 31.6685C105.284 32.2299 105.397 32.7861 105.418 33.3476C105.461 34.6631 105.456 35.984 105.477 37.2995C105.483 37.6685 105.44 38.0374 105.612 38.4011C105.687 38.5562 105.601 38.7808 105.59 38.9733C105.558 39.3957 105.515 39.8128 105.499 40.2353C105.499 40.3048 105.617 40.3743 105.676 40.4492C105.735 40.3743 105.837 40.2995 105.843 40.2193C105.902 39.6417 106.229 39.107 106.127 38.5027C106.466 38.0535 106.187 37.4492 106.509 36.9893C106.563 36.9144 106.536 36.7808 106.546 36.6738C106.563 36.4118 106.514 36.1444 106.724 35.9198C106.772 35.8663 106.756 35.7487 106.761 35.6631C106.777 35.3476 106.729 35.0321 106.949 34.7487C107.019 34.6578 106.971 34.4706 106.982 34.3316C106.992 34.123 106.933 33.8984 107.137 33.738C107.17 33.7112 107.186 33.6417 107.186 33.5882C107.175 33.0374 107.256 32.5027 107.401 31.9679C107.589 31.2888 107.653 30.5829 107.712 29.877C107.755 29.3583 107.976 28.861 108.072 28.3476C108.185 27.7807 108.244 27.1979 108.335 26.6257C108.4 26.2086 108.486 25.7968 108.561 25.3797C108.685 24.7112 108.755 24.0267 108.986 23.3797C109.023 23.2674 109.012 23.1337 109.012 23.0107C109.018 21.9037 109.034 20.8021 109.012 19.6952C109.002 19.1551 108.792 18.6685 108.427 18.2674C108.115 17.9251 107.793 17.5989 107.471 17.2727C107.019 16.8128 106.772 16.2299 106.573 15.6417C106.477 15.3583 106.477 15.0053 106.729 14.738C106.67 14.2513 107.078 13.9893 107.277 13.6364C107.578 13.1123 108.153 12.9679 108.69 12.9144C109.437 12.8449 110.2 12.8289 110.941 12.9251C111.537 13 112.107 13.2299 112.639 13.6043C113.257 14.0428 113.772 14.5615 114.175 15.1765C114.562 15.7647 115.003 16.3476 115.094 17.0802C115.465 17.5187 115.153 18.1337 115.497 18.5829C115.54 18.6417 115.524 18.7594 115.513 18.8449C115.454 19.631 115.669 20.4385 115.33 21.2086C115.282 21.3155 115.309 21.4545 115.304 21.5775C115.282 21.8556 115.352 22.1444 115.132 22.3904C115.073 22.4545 115.094 22.5936 115.089 22.7005C115.073 23.0535 115.142 23.4171 114.895 23.7273C114.868 23.7647 114.874 23.8289 114.874 23.8824C114.858 24.3048 114.825 24.7059 114.686 25.1283C114.498 25.7059 114.471 26.3422 114.396 26.9572C114.396 27.107 114.428 27.2995 114.444 27.6417ZM99.1432 37.6738C98.5738 37.5615 98.1601 37.8824 97.6981 37.9679C97.1877 38.0642 96.7149 38.3369 96.1723 38.3048C96.0487 38.2995 95.8983 38.2674 95.8016 38.3209C95.3342 38.5829 94.8292 38.508 94.3349 38.5134C93.7439 38.5187 93.196 38.7112 92.6641 38.9305C92.3364 39.0642 92.0194 39.2299 91.7347 39.4385C90.8428 40.0856 90.3539 40.9519 90.2734 42.0695C90.2357 42.5668 90.3754 43.0267 90.5473 43.4492C90.7193 43.8824 90.9986 44.3102 91.3371 44.6257C92.1107 45.3583 93.1422 45.5508 94.1469 45.738C95.0226 45.8984 95.8714 45.5294 96.7418 45.508C96.7579 45.508 96.7794 45.5027 96.7955 45.492C97.2897 45.2834 97.8162 45.123 98.2729 44.8503C98.7618 44.5562 99.1916 44.2139 99.1647 43.4866C99.1056 41.7273 99.1432 39.9572 99.1432 38.1979C99.1432 38.0481 99.1432 37.8877 99.1432 37.6738Z" fill="#FF5E02"/>
<path d="M50.2212 26.1551C50.463 26.1979 50.6241 26.2086 50.8014 26.0535C51.7523 25.2032 52.8806 24.6471 54.084 24.2567C54.5997 24.0909 55.1585 24.0481 55.6957 23.9465C55.8676 23.9145 56.0342 23.8556 56.2061 23.8342C56.4532 23.8075 56.7326 23.7166 56.9421 23.8022C57.3612 23.9733 57.7856 23.9679 58.2046 23.9572C58.6882 23.9412 59.1072 24.1391 59.5424 24.262C60.3536 24.4973 61.1058 24.9091 61.7719 25.4171C62.234 25.7701 62.7121 26.1177 63.0721 26.6043C63.4159 27.0695 63.9209 27.4064 64.168 27.9519C64.2379 28.107 64.34 28.246 64.442 28.4118C64.8342 28.246 65.0545 27.9145 65.307 27.6364C65.6025 27.3102 65.855 26.9465 66.1451 26.6203C66.403 26.3316 66.677 26.0535 66.951 25.7861C67.6386 25.1123 68.4714 24.6845 69.3793 24.385C70.0509 24.1604 70.7385 24.0374 71.4369 23.9145C71.9151 23.8289 72.4094 23.6631 72.8499 23.7915C73.5537 23.9947 74.3005 23.8449 74.9881 24.1444C75.3212 24.2888 75.7134 24.2888 76.0572 24.4171C76.7127 24.6631 77.352 24.9465 77.9161 25.3743C78.2223 25.6096 78.5447 25.8289 78.8294 26.0909C79.3935 26.6043 79.8126 27.2246 80.2424 27.8503C80.7044 28.5241 81.0429 29.246 81.3706 29.984C81.5479 30.3797 81.6338 30.8182 81.752 31.2353C81.8702 31.6578 81.9777 32.0802 82.0959 32.5027C82.112 32.5722 82.1442 32.6364 82.1496 32.7059C82.2355 33.9091 82.4504 35.0963 82.4451 36.3102C82.4182 40.0374 82.4343 43.7594 82.4397 47.4866C82.4397 48.1711 82.3645 48.8342 81.9938 49.4225C81.6016 50.0375 81.0805 50.4813 80.3015 50.4973C79.7642 50.508 79.227 50.5027 78.6897 50.5027C78.0558 50.5027 77.54 50.1979 77.0726 49.8289C76.7825 49.5989 76.6536 49.2407 76.5246 48.8877C76.2721 48.2139 76.3205 47.5294 76.3205 46.8396C76.3205 43.0802 76.3205 39.3209 76.3151 35.5562C76.3151 35.2407 76.3635 34.9145 76.1539 34.6257C76.1056 34.5615 76.1002 34.4546 76.111 34.369C76.2023 33.5776 75.794 32.9038 75.5845 32.1872C75.4878 31.8556 75.16 31.5936 74.9827 31.2781C74.5959 30.5722 73.919 30.2513 73.2421 29.9251C73.2098 29.9091 73.183 29.8663 73.1561 29.8663C72.318 29.8663 71.4745 29.8022 70.6472 29.8984C70.1798 29.9519 69.7178 30.2193 69.3041 30.4706C68.3961 31.0107 67.6762 31.7433 67.1927 32.6952C67.0477 32.984 67.0208 33.2941 66.9456 33.5936C66.7952 34.1818 66.822 34.7861 66.677 35.3583C66.5749 35.7647 66.5373 36.1551 66.5373 36.5615C66.5373 40.2674 66.5158 43.9786 66.5534 47.6845C66.5588 48.492 66.3063 49.1765 65.7851 49.7059C65.35 50.1497 64.8127 50.5669 64.0821 50.5134C63.6201 50.476 63.1473 50.5348 62.6852 50.492C61.7773 50.4064 61.0896 49.9786 60.6491 49.1444C60.4933 48.8556 60.4611 48.5829 60.4611 48.2888C60.4449 44.3316 60.4664 40.3743 60.3912 36.4225C60.3751 35.508 60.3482 34.5508 60.0313 33.6578C60.0205 33.6257 60.0098 33.5883 60.0098 33.5508C60.0205 32.5989 59.4349 31.877 59.0374 31.0856C58.9245 30.8556 58.6183 30.7219 58.4195 30.5294C57.9092 30.0481 57.2967 29.8182 56.5983 29.8075C56.2222 29.8022 55.8461 29.7861 55.4701 29.8022C54.3902 29.8503 53.4447 30.246 52.6764 30.9947C52.2144 31.4492 51.6825 31.8556 51.4139 32.4813C51.199 32.9733 50.8928 33.4118 50.8229 33.9733C50.7531 34.5027 50.5597 35.0161 50.4361 35.5455C50.3985 35.7166 50.4146 35.8984 50.4146 36.0802C50.4146 40.0374 50.42 43.9947 50.4092 47.9519C50.4092 49.2567 49.8075 49.9251 48.7491 50.4599C48.6471 50.5134 48.502 50.4973 48.3785 50.5027C47.8412 50.508 47.304 50.492 46.7667 50.5187C46.122 50.5455 45.6116 50.2514 45.1442 49.877C44.9401 49.7112 44.7843 49.4546 44.6768 49.2086C44.5049 48.8129 44.333 48.4171 44.333 47.9626C44.3384 40.7433 44.333 33.5241 44.3438 26.3102C44.3438 25.4546 44.8273 24.8022 45.4988 24.3048C45.66 24.1872 45.891 24.1391 46.1005 24.1016C47.2771 23.8877 48.4537 23.8022 49.4852 24.5455C50.0063 24.9038 50.2373 25.4653 50.2212 26.1551Z" fill="#FF5E02"/>
<path d="M26.3626 44.2406C26.7709 44.2406 27.1739 44.2888 27.5553 44.2299C28.3397 44.107 29.3605 45.0214 29.5807 45.7914C29.6882 46.1604 29.8386 46.5134 29.801 46.9251C29.7527 47.4064 29.6291 47.8556 29.3443 48.2406C29.1509 48.5027 29.0381 48.8075 28.7534 49.0321C28.2537 49.4278 27.7219 49.6898 27.1094 49.8984C26.223 50.2032 25.3365 50.1283 24.4769 50.0374C23.5367 49.9412 22.5966 49.631 21.925 48.8556C21.8928 48.8128 21.8498 48.7808 21.8122 48.7433C21.2696 48.2086 21.2803 48.2193 20.6464 48.6417C19.819 49.1925 18.9379 49.6631 18.0139 50.0267C17.6163 50.1818 17.1543 50.1818 16.7406 50.3048C15.462 50.6952 14.1618 50.4706 12.8671 50.5027C12.5501 50.508 12.2493 50.4973 11.9377 50.3529C11.6314 50.2139 11.2554 50.1658 10.9223 50.1177C10.1862 50.0107 9.60065 49.6096 8.95058 49.3316C8.34887 49.0695 7.86535 48.631 7.35497 48.2246C6.44166 47.4866 5.8292 46.5615 5.34568 45.5241C5.13078 45.0642 5.03945 44.5668 4.88365 44.0963C4.59354 43.2299 4.74934 42.3743 4.70636 41.5134C4.69562 41.3155 4.79232 41.107 4.84067 40.9037C4.86216 40.8182 4.90514 40.738 4.91051 40.6524C4.94275 39.8342 5.34031 39.1444 5.72175 38.4652C5.94202 38.0695 6.30197 37.754 6.53299 37.3583C6.80698 36.8824 7.26364 36.615 7.65583 36.2888C8.15009 35.877 8.73569 35.5882 9.34277 35.3529C10.068 35.0749 10.7772 34.7754 11.5079 34.5187C11.8732 34.3904 12.26 34.3155 12.6468 34.262C13.4742 34.1551 14.3069 34.0481 15.1396 33.9947C15.6017 33.9626 16.0529 33.893 16.5096 33.8396C17.1435 33.7701 17.7721 33.6791 18.3899 33.5348C18.809 33.4332 19.2227 33.2567 19.6041 33.0588C19.8083 32.9519 19.9909 32.7701 19.9641 32.4599C19.9265 32.016 19.9641 31.5668 19.9211 31.1283C19.8566 30.3797 19.6095 29.7112 19.1367 29.0909C18.7821 28.6257 18.3094 28.369 17.8366 28.0909C17.4175 27.8449 16.9501 27.7326 16.4505 27.7647C16.1658 27.7861 15.8757 27.7914 15.5909 27.7647C14.8656 27.6898 14.2156 27.9091 13.6192 28.2781C13.1518 28.5668 12.808 28.9947 12.5931 29.5134C12.3943 30 12.2385 30.5027 11.9 30.9251C11.5616 31.3476 11.1372 31.6203 10.6483 31.8396C10.1218 32.0695 9.57916 32.0695 9.0258 32.0374C8.62286 32.016 8.26828 31.877 7.95668 31.615C7.83849 31.5187 7.68269 31.4599 7.55912 31.3583C7.41407 31.2406 7.25289 31.123 7.16693 30.9679C6.95204 30.5722 6.70491 30.1711 6.59746 29.7433C6.50613 29.385 6.58671 28.984 6.60283 28.6043C6.60283 28.5401 6.68879 28.4759 6.68879 28.4118C6.64044 27.7487 7.22066 27.3797 7.43556 26.8342C7.52152 26.6096 7.79551 26.4332 7.96743 26.2139C8.21993 25.893 8.50467 25.5882 8.82164 25.3316C9.42873 24.8342 10.1057 24.4599 10.8309 24.123C11.5079 23.8128 12.2009 23.5722 12.9047 23.3743C13.5494 23.1925 14.2317 23.107 14.8979 23.0749C15.7897 23.0321 16.6976 23 17.5787 23.107C18.8197 23.2567 20.0178 23.5829 21.1836 24.1016C22.2742 24.5882 23.1983 25.246 23.988 26.107C24.4823 26.6471 24.8208 27.3102 25.1431 27.9733C25.4654 28.6417 25.6696 29.3369 25.8576 30.0588C25.9973 30.5882 26.0296 31.1016 26.0296 31.631C26.0349 35.1604 26.0296 38.6898 26.0349 42.2193C26.0349 42.4439 26.0886 42.6738 26.1155 42.8984C26.1263 42.9679 26.1585 43.0535 26.1316 43.1016C25.8952 43.5241 26.1263 43.8503 26.3626 44.2406ZM19.8889 37.5134C19.5558 37.6096 19.3248 37.6738 19.0937 37.7487C18.7768 37.8503 18.4705 38.0214 18.1482 38.0535C17.568 38.1123 17.0254 38.4118 16.4236 38.3048C16.3592 38.2941 16.284 38.3316 16.2141 38.3422C15.9724 38.3904 15.736 38.4599 15.4942 38.4866C14.9731 38.5455 14.4573 38.5348 13.9255 38.6898C13.0283 38.9465 12.3406 39.4439 11.7389 40.107C11.5723 40.2888 11.4112 40.4813 11.2983 40.7005C10.9814 41.3422 10.9706 42.0267 11.0243 42.7273C11.0727 43.3155 11.3574 43.7914 11.6798 44.2513C12.346 45.2032 13.3936 45.5455 14.4466 45.7219C15.2901 45.861 16.1711 45.8289 17.0468 45.6043C17.8635 45.3957 18.6048 45.0963 19.3409 44.7059C19.7922 44.4652 19.9426 44.1711 19.9426 43.7005C19.9318 41.8663 19.9426 40.0321 19.9372 38.1979C19.9372 38.016 19.9103 37.8235 19.8889 37.5134Z" fill="#FF5E02"/>
<path d="M31.1172 28.9519C31.1172 24.2995 31.1279 19.6471 31.1064 14.9947C31.1064 14.4973 31.23 14.0428 31.3966 13.6203C31.5201 13.3102 31.864 13.0374 32.1756 12.8556C32.4496 12.6952 32.8095 12.631 33.1372 12.6043C33.653 12.5615 34.1795 12.6203 34.6952 12.5775C35.2755 12.5294 35.7805 12.738 36.1565 13.0963C36.452 13.3797 36.7529 13.7487 36.7797 14.2299C36.7959 14.4759 36.8603 14.7112 36.8979 14.9572C36.9087 15.0428 36.914 15.1337 36.9033 15.2192C36.8657 15.5348 36.7905 15.8449 36.7905 16.1551C36.7851 24.0695 36.7797 31.9786 36.7959 39.893C36.7959 40.8984 36.8388 41.9251 37.0376 42.9037C37.1719 43.5722 37.4835 44.246 38.327 44.492C38.7084 44.6043 39.0845 44.6845 39.4606 44.6898C40.0193 44.6898 40.5512 44.8235 41.0938 44.9091C41.5988 44.9893 41.9212 45.3636 42.1307 45.7487C42.4638 46.3636 42.6894 47.0481 42.5712 47.7594C42.4745 48.3422 42.41 48.9465 42.1038 49.4652C41.803 49.9733 41.3463 50.2834 40.7231 50.2834C39.6862 50.2781 38.644 50.2834 37.6071 50.2727C37.4567 50.2727 37.3062 50.2032 37.1558 50.1604C37.0698 50.139 36.9893 50.0963 36.9087 50.0802C36.4628 50 36.0007 49.9626 35.5763 49.8289C35.2164 49.7166 34.8886 49.4813 34.5448 49.3155C33.7604 48.9358 33.1748 48.3048 32.6591 47.6417C32.2615 47.1283 31.9553 46.5294 31.7834 45.8824C31.6974 45.5508 31.5524 45.2406 31.4288 44.9198C31.418 44.8877 31.3858 44.861 31.3804 44.8289C31.2999 44.2941 31.1548 43.7594 31.1548 43.2246C31.1387 38.4652 31.1441 33.7059 31.1441 28.9519C31.1226 28.9519 31.1172 28.9519 31.1172 28.9519Z" fill="#FF5E02"/>
</svg>
