<svg width="29" height="29" viewBox="0 0 29 29" fill="none" xmlns="http://www.w3.org/2000/svg">
<path fill-rule="evenodd" clip-rule="evenodd" d="M14.8235 9.15771C11.0576 9.1586 9.1582 11.5467 9.1582 13.5396C9.1582 13.9074 9.20666 14.2636 9.3055 14.5915C9.5284 15.3376 10.012 15.941 10.7805 16.2193C10.9636 16.284 11.1264 16.2219 11.1778 16.0438C11.2146 15.9207 11.3009 15.6105 11.3406 15.4802C11.392 15.3048 11.3726 15.2437 11.2262 15.0904C11.0344 14.8901 10.8861 14.6535 10.796 14.3646C10.7359 14.1723 10.702 13.9588 10.702 13.7142C10.702 11.941 12.2021 10.354 14.6055 10.354C16.7345 10.354 17.9042 11.5051 17.9042 13.0416C17.9042 13.4953 17.8538 13.9322 17.7589 14.3371C17.4274 15.7425 16.5572 16.7713 15.3933 16.7713C14.5628 16.7713 13.9416 16.1661 14.1403 15.4209C14.2546 14.9964 14.4184 14.5587 14.5589 14.1449C14.714 13.6903 14.8409 13.2676 14.8409 12.9317C14.8409 12.3584 14.4921 11.879 13.772 11.879C12.9241 11.879 12.2418 12.6544 12.2418 13.6938C12.2418 13.8896 12.2641 14.0651 12.2951 14.2175C12.3698 14.5808 12.4948 14.8041 12.4948 14.8041C12.4948 14.8041 11.6265 18.0553 11.4743 18.626C11.172 19.7611 11.4288 21.1515 11.4501 21.2915C11.4627 21.3739 11.5848 21.3943 11.6381 21.3314C11.7166 21.2401 12.7274 20.1377 13.0704 19.0363C13.1673 18.7235 13.6276 17.1081 13.6276 17.1081C13.9038 17.5724 14.7082 17.9809 15.5649 17.9809C17.6406 17.9809 19.1718 16.618 19.6689 14.6242C19.7823 14.1697 19.8424 13.6832 19.8424 13.1737C19.8424 11.0957 17.85 9.15771 14.8235 9.15771Z" fill="#000"/>
<rect x="0.5" y="0.5" width="28" height="28" rx="4.5" stroke="#000"/>
</svg>
