<svg width="66" height="24" viewBox="0 0 66 24" fill="none" xmlns="http://www.w3.org/2000/svg">
<path d="M47.2158 9.06682H44.9117V17.0005C44.9106 17.1501 44.7903 17.2711 44.6416 17.2722H42.8671C42.7184 17.2711 42.5981 17.1501 42.597 17.0005V9.06682H40.2759C40.2057 9.06969 40.1372 9.04376 40.0863 8.99494C40.0354 8.94613 40.0064 8.87862 40.0059 8.80788V7.40281C40.0063 7.33207 40.0354 7.26456 40.0863 7.21575C40.1372 7.16693 40.2057 7.141 40.2759 7.14388H47.2116C47.3612 7.13665 47.4885 7.25237 47.4965 7.40281V8.80788C47.4885 8.9566 47.3638 9.07165 47.2158 9.06682Z" fill="white"/>
<path d="M54.6052 17.2189C53.6968 17.3496 52.7797 17.4092 51.8621 17.3972C50.1129 17.3972 48.5684 16.9472 48.5684 14.4661V9.9389C48.5684 7.45775 50.1277 7.02265 51.8748 7.02265C52.7853 7.0101 53.6953 7.069 54.5967 7.19881C54.7866 7.2264 54.8668 7.29432 54.8668 7.47049V8.74396C54.8657 8.89352 54.7454 9.01447 54.5967 9.01563H51.7482C51.1152 9.01563 50.881 9.22787 50.881 9.94314V11.1827H54.4975C54.6462 11.1838 54.7665 11.3048 54.7676 11.4543V12.749C54.7666 12.8986 54.6462 13.0195 54.4975 13.0207H50.881V14.4661C50.881 15.175 51.1109 15.3936 51.7482 15.3936H54.6052C54.7538 15.3947 54.8741 15.5157 54.8752 15.6653V16.9387C54.8773 17.1085 54.7951 17.1913 54.6052 17.2189Z" fill="white"/>
<path d="M64.8302 17.2722H62.6758C62.5256 17.2834 62.3846 17.1985 62.3235 17.06L60.454 14.0885L58.766 17.0048C58.671 17.1682 58.5761 17.2764 58.4262 17.2764H56.4259C56.3735 17.2859 56.3197 17.2714 56.2789 17.237C56.2382 17.2026 56.2147 17.1517 56.2149 17.0982C56.2177 17.0648 56.227 17.0323 56.2424 17.0027L59.1816 12.0807L56.2149 7.40281C56.1996 7.37769 56.1902 7.34937 56.1875 7.32004C56.1975 7.21257 56.2915 7.13315 56.3985 7.14175H58.5803C58.7301 7.14175 58.8377 7.27759 58.92 7.40069L60.6544 10.1599L62.3425 7.40069C62.4036 7.26115 62.5321 7.16325 62.6822 7.14175H64.6888C64.7958 7.13315 64.8898 7.21257 64.8998 7.32004C64.8971 7.34937 64.8877 7.37769 64.8724 7.40281L61.9183 12.1083L64.9927 16.9899C65.0164 17.0314 65.0301 17.0779 65.0327 17.1258C65.0074 17.2191 64.9378 17.2722 64.8302 17.2722Z" fill="white"/>
<path d="M36.761 7.17145C36.6598 7.16919 36.5712 7.23955 36.55 7.33913L34.5813 14.6658C34.5539 14.8165 34.5138 14.8781 34.3914 14.8781C34.269 14.8781 34.229 14.8229 34.2015 14.6658L32.2392 7.33913C32.218 7.23955 32.1294 7.16919 32.0282 7.17145H30.0912C30.0262 7.16984 29.964 7.19849 29.9228 7.24908C29.8816 7.29968 29.8659 7.36658 29.8802 7.43039C29.8802 7.43039 32.2835 15.8289 32.3088 15.9202C32.6296 16.922 33.4082 17.4059 34.3978 17.4059C35.3472 17.4402 36.2023 16.832 36.4867 15.9202C36.5247 15.8056 38.8752 7.43039 38.8752 7.43039C38.8888 7.36689 38.8727 7.30063 38.8316 7.25056C38.7905 7.20049 38.7288 7.17212 38.6642 7.17357L36.761 7.17145Z" fill="white"/>
<path d="M25.7823 0.360439H5.58509C4.85424 0.36716 4.17958 0.756096 3.80437 1.387C3.42916 2.01791 3.40752 2.7998 3.74726 3.45073L5.76866 7.32207H2.10565C1.63767 7.31351 1.20014 7.5547 0.955509 7.95609C0.710881 8.35748 0.695697 8.85911 0.915596 9.27473L7.41449 21.6274C7.64769 22.071 8.10567 22.3485 8.60454 22.3485C9.10342 22.3485 9.56139 22.071 9.7946 21.6274L11.5586 18.2803L13.7741 22.4955C14.1343 23.1798 14.8411 23.6078 15.6109 23.6078C16.3807 23.6078 17.0875 23.1798 17.4477 22.4955L27.5758 3.34036C27.9112 2.70987 27.891 1.94821 27.5229 1.33652C27.1547 0.724836 26.4931 0.353826 25.7823 0.360439ZM16.7577 8.45334L12.3266 16.8116C12.1744 17.1002 11.8761 17.2808 11.5512 17.2808C11.2263 17.2808 10.928 17.1002 10.7758 16.8116L6.40167 8.53399C6.26672 8.27926 6.2746 7.97196 6.42243 7.72456C6.57026 7.47716 6.83634 7.32597 7.1233 7.32632H16.074C16.3437 7.32214 16.5955 7.46174 16.736 7.69334C16.8765 7.92495 16.8847 8.21401 16.7577 8.45334Z" fill="white"/>
</svg>
